<svg width="358" height="151" viewBox="0 0 358 151" fill="none" xmlns="http://www.w3.org/2000/svg">
<path d="M152.857 120.494H141.949C141.564 120.494 141.289 120.072 141.289 119.669C141.289 119.526 147.093 101.322 147.093 101.322C147.3 100.641 147.319 100.621 147.398 100.621H147.408C147.496 100.621 147.506 100.641 147.713 101.322C147.713 101.322 153.517 119.526 153.517 119.669C153.517 120.072 153.221 120.494 152.857 120.494H152.857ZM167.569 78.8428C167.515 78.6628 167.405 78.5032 167.256 78.385C167.106 78.2669 166.923 78.1958 166.731 78.1812H126.674C126.484 78.196 126.302 78.266 126.153 78.3822C126.004 78.4984 125.893 78.6555 125.837 78.8332C125.837 78.8332 103.695 149.942 103.695 150.077C103.695 150.431 103.981 150.718 104.355 150.718H130.833C130.938 150.676 131.03 150.609 131.102 150.524C131.174 150.439 131.224 150.338 131.247 150.229L134.331 140.644C134.378 140.525 134.461 140.423 134.567 140.349C134.674 140.276 134.801 140.235 134.932 140.231L159.361 140.213C159.626 140.232 159.863 140.414 159.962 140.644L163.115 150.229C163.164 150.451 163.322 150.651 163.529 150.728L189.583 150.718C189.947 150.718 190.253 150.45 190.253 150.095C190.253 149.971 167.569 78.8428 167.569 78.8428ZM243.05 107.876L226.781 107.885C226.781 107.885 226.348 107.761 226.348 107.281L226.339 99.2961C226.339 98.8168 226.772 98.6921 226.772 98.6921H241.691C243.425 98.6921 246.933 99.5358 246.933 103.437C246.933 107.339 243.051 107.876 243.051 107.876L243.05 107.876ZM321.055 101.693H357.919V78.1783H310.521C306.087 78.1783 299.849 80.4026 296.272 82.9809C292.695 85.5593 287.522 91.4358 287.522 99.5359C287.522 107.636 292.577 113.934 292.577 113.934C295.168 117.059 301.692 123.568 301.692 123.568C301.84 123.722 301.929 123.922 301.929 124.153C301.929 124.641 301.525 125.035 301.022 125.035H264.513C260.069 125.015 259.763 123.3 259.763 123.051C259.763 122.61 260.315 122.332 260.315 122.332C261.981 121.555 265.379 118.976 265.379 118.976C272.593 113.512 273.461 106.016 273.461 102C273.461 97.9731 272.839 90.8509 265.439 84.6108C258.039 78.37 248.668 78.1974 248.668 78.1974H196.569V150.304C196.569 150.533 196.786 150.715 197.022 150.715H226.023V130.489C226.023 130.135 226.584 130.489 226.584 130.489L241.691 145.252C247.061 150.533 255.94 150.715 255.94 150.715L313.053 150.706C322.799 150.706 328.219 145.549 329.707 144.111C331.185 142.663 336.122 137.267 336.122 128.323C336.122 119.389 331.924 114.816 330.13 112.717C328.534 110.838 322.168 104.281 320.838 102.92C320.758 102.856 320.693 102.775 320.649 102.684C320.604 102.593 320.582 102.494 320.582 102.393C320.582 102.076 320.769 101.779 321.055 101.692V101.693ZM90.4597 150.714C90.6569 150.714 90.7948 150.58 90.8539 150.369C90.8539 150.369 113.292 78.6754 113.292 78.6075C113.292 78.4158 113.173 78.2056 112.986 78.1864H85.3256C85.1876 78.1864 85.0989 78.2919 85.0694 78.4357C85.0694 78.4453 79.344 97.08 79.344 97.0895C79.3044 97.243 79.2258 97.3388 79.0877 97.3388C78.9498 97.3388 78.8315 97.2046 78.8118 97.0895L72.821 78.4261C72.8012 78.3007 72.7028 78.1864 72.5648 78.1864L42.0175 78.1768C41.9731 78.1887 41.9321 78.2105 41.8979 78.2404C41.8637 78.2704 41.8371 78.3077 41.8203 78.3494L36.4498 97.08C36.4204 97.243 36.3315 97.3389 36.1837 97.3389C36.121 97.3377 36.0608 97.3149 36.0138 97.2745C35.9669 97.2341 35.9362 97.1787 35.9274 97.1183L30.2316 78.4069C30.2247 78.3498 30.1989 78.2964 30.158 78.2549C30.1171 78.2133 30.0633 78.186 30.0049 78.1768H0.522022C0.405925 78.1784 0.295168 78.2245 0.213921 78.3052C0.132673 78.3859 0.0875333 78.4946 0.0883439 78.6075C0.0883439 78.6459 0.0979039 78.7226 0.0979039 78.7226L22.8706 150.369C22.93 150.58 23.0677 150.714 23.2649 150.714L47.7525 150.724C47.8995 150.704 48.0481 150.541 48.0868 150.369C48.0963 150.369 56.6104 123.71 56.6104 123.71C56.6596 123.547 56.7287 123.452 56.8667 123.452C57.0145 123.452 57.0941 123.566 57.1328 123.7L65.4396 150.484C65.4638 150.551 65.5091 150.61 65.5692 150.651C65.6293 150.692 65.7011 150.714 65.7747 150.714H90.4594H90.4597ZM69.1575 0.274973C64.7133 0.274973 58.486 2.49857 54.9092 5.07764C51.3308 7.65598 46.1589 13.5325 46.1589 21.6326C46.1589 29.7327 51.2133 36.031 51.2133 36.031C53.8054 39.1558 60.3283 45.7123 60.3283 45.7123C60.4761 45.8657 60.5648 46.067 60.5648 46.2876C60.5648 46.7765 60.1607 47.1792 59.6589 47.1792H0.0812378V72.8122H71.6904C81.4263 72.8122 86.8553 67.6547 88.3435 66.2077C89.8218 64.7696 94.7489 59.3725 94.7489 50.4287C94.7489 41.4945 90.561 36.874 88.7673 34.775C87.1707 32.8958 80.8054 26.3777 79.4749 25.0259C79.3951 24.9594 79.331 24.8771 79.2868 24.7845C79.2426 24.6918 79.2193 24.5911 79.2187 24.4889C79.2187 24.1726 79.4059 23.8849 79.6917 23.789H114.181V72.8122H140.698V23.9137H172.891V0.274973H69.1575ZM300.438 29.9731L284.169 29.9826C284.169 29.9826 283.736 29.858 283.736 29.3786L283.726 21.3936C283.726 20.9142 284.16 20.7896 284.16 20.7896H299.079C300.813 20.7896 304.321 21.6333 304.321 25.5347C304.321 29.4361 300.439 29.9731 300.439 29.9731L300.438 29.9731ZM321.901 47.132C317.466 47.1128 317.151 45.3974 317.151 45.1481C317.151 44.7071 317.702 44.429 317.702 44.429C319.368 43.6524 322.767 41.0733 322.767 41.0733C329.981 35.6099 330.848 28.1138 330.848 24.0973C330.848 20.0705 330.227 12.9483 322.827 6.70825C315.426 0.467436 306.055 0.275683 306.055 0.275683H253.956V72.4006C253.956 72.6307 254.174 72.8136 254.411 72.8136H283.411V52.5955C283.411 52.2312 283.972 52.5955 283.972 52.5955L299.079 67.3487C304.449 72.63 313.327 72.8121 313.327 72.8121H357.917V47.1335H321.901V47.132ZM211.658 42.5845H200.749C200.345 42.5845 200.09 42.1626 200.09 41.7599C200.09 41.6065 205.893 23.4129 205.893 23.4129C206.1 22.7322 206.159 22.7123 206.199 22.7123H206.208C206.248 22.7123 206.307 22.7322 206.514 23.4129C206.514 23.4129 212.317 41.6073 212.317 41.7599C212.317 42.1626 212.052 42.5845 211.658 42.5845H211.658ZM226.34 0.914374C226.288 0.735032 226.179 0.576318 226.028 0.460942C225.878 0.345566 225.694 0.279437 225.502 0.272003H185.446C185.052 0.291201 184.717 0.550044 184.609 0.904786C184.609 0.904786 162.486 72.0326 162.486 72.1668C162.486 72.5216 162.782 72.8092 163.146 72.8092H189.624C189.841 72.7428 189.998 72.5407 190.047 72.3202L193.132 62.7252C193.182 62.6088 193.265 62.5089 193.372 62.4375C193.478 62.366 193.604 62.3261 193.733 62.3225H218.151C218.282 62.3311 218.408 62.374 218.515 62.4466C218.623 62.5192 218.708 62.6188 218.762 62.7348L221.916 72.3202C221.965 72.5415 222.122 72.7421 222.329 72.8188L248.383 72.8092C248.748 72.8092 249.044 72.5407 249.044 72.1764C249.044 72.0614 226.34 0.914395 226.34 0.914395" fill="#DBA90D"/>
</svg>
